<svg width="42" height="45" viewBox="0 0 42 45" fill="none" xmlns="http://www.w3.org/2000/svg">
<path opacity="0.4" d="M41.3966 41.5411C41.3966 43.4286 32.2159 44.9588 20.8909 44.9588C9.56596 44.9588 0.385254 43.4286 0.385254 41.5411C0.385254 39.6537 9.56596 38.1235 20.8909 38.1235C32.2159 38.1235 41.3966 39.6537 41.3966 41.5411Z" fill="#D9D9D9"/>
<mask id="path-2-inside-1_525_3952" fill="white">
<rect x="18.7026" y="0.0415039" width="3.66173" height="1.46469" rx="0.5"/>
</mask>
<rect x="18.7026" y="0.0415039" width="3.66173" height="1.46469" rx="0.5" fill="#9BD9FF" stroke="#9BD9FF" stroke-width="1.46469" mask="url(#path-2-inside-1_525_3952)"/>
<path d="M13.9971 9.02055L19.058 2.50938C19.1944 2.33389 19.2685 2.11795 19.2685 1.89568V1.77393C19.2685 1.22164 19.7162 0.773926 20.2685 0.773926H20.7984C21.3507 0.773926 21.7984 1.22164 21.7984 1.77393V1.89568C21.7984 2.11795 21.8725 2.33389 22.0089 2.50938L27.0698 9.02055C27.3426 9.37153 27.4907 9.8034 27.4907 10.2479V13.6885C27.4907 14.2408 27.043 14.6885 26.4907 14.6885H14.5762C14.0239 14.6885 13.5762 14.2408 13.5762 13.6885V10.2479C13.5762 9.8034 13.7243 9.37153 13.9971 9.02055Z" fill="#9BD9FF" stroke="#9BD9FF" stroke-width="0.5"/>
<rect x="13.8262" y="12.7412" width="13.4146" height="6.82345" rx="0.75" fill="white" stroke="#9BD9FF" stroke-width="0.5"/>
<path d="M14.1067 21.4344L14.0057 21.1262C13.7939 20.4797 14.2757 19.8149 14.956 19.8149H26.1109C26.7912 19.8149 27.273 20.4797 27.0612 21.1262L26.9602 21.4344C26.894 21.6366 26.894 21.8547 26.9602 22.057L27.441 23.5247C27.474 23.6252 27.4907 23.7303 27.4907 23.836V39.053C27.4907 40.1575 26.5953 41.053 25.4907 41.053H15.5762C14.4716 41.053 13.5762 40.1575 13.5762 39.053V23.836C13.5762 23.7303 13.5929 23.6252 13.6259 23.5247L14.1067 22.057C14.1729 21.8547 14.1729 21.6366 14.1067 21.4344Z" fill="#9BD9FF" stroke="#9BD9FF" stroke-width="0.5"/>
<path d="M20.499 14.9028C20.6192 15.036 20.7852 15.23 20.9482 15.4585C21.2659 15.9038 21.5 16.3758 21.5 16.7407C21.5 16.9836 21.4027 17.2095 21.2432 17.3823C21.1975 17.0051 20.8756 16.73 20.5 16.73L20.499 16.729C20.4935 16.3639 20.2325 16.0777 19.8984 16.0112L19.75 15.9966C19.7392 15.9966 19.7285 15.9991 19.7178 15.9995C19.8087 15.8202 19.9229 15.6366 20.0508 15.4575C20.2135 15.2298 20.3788 15.0357 20.499 14.9028Z" fill="#9BD9FF" stroke="#9BD9FF"/>
</svg>
