<svg width="48" height="52" viewBox="0 0 48 52" fill="none" xmlns="http://www.w3.org/2000/svg">
<path opacity="0.4" d="M47.8402 48.3602C47.8402 50.3705 37.1308 52.0002 23.9201 52.0002C10.7094 52.0002 0 50.3705 0 48.3602C0 46.3499 10.7094 44.7202 23.9201 44.7202C37.1308 44.7202 47.8402 46.3499 47.8402 48.3602Z" fill="#D9D9D9"/>
<path d="M29.7909 8.11882H18.0488C17.4965 8.11882 17.0488 7.6711 17.0488 7.11882V5.69043C17.0488 4.58586 17.9443 3.69043 19.0488 3.69043H28.7909C29.8955 3.69043 30.7909 4.58586 30.7909 5.69043V7.11882C30.7909 7.6711 30.3432 8.11882 29.7909 8.11882Z" fill="#9BD9FF"/>
<path d="M20.5796 0.556822C20.7481 0.215822 21.0956 0 21.476 0H26.3637C26.7441 0 27.0916 0.215822 27.2602 0.556821L28.4607 2.98521C28.7893 3.64984 28.3057 4.42839 27.5643 4.42839H20.2754C19.534 4.42839 19.0504 3.64984 19.379 2.98521L20.5796 0.556822Z" fill="#9BD9FF"/>
<path d="M19.4741 2.95215L21.8992 5.16634" stroke="white" stroke-width="0.5"/>
<path d="M28.3662 2.95215L25.9411 5.16634" stroke="white" stroke-width="0.5"/>
<rect x="22.1489" y="2.46436" width="3.5418" height="3.92839" rx="0.75" stroke="white" stroke-width="0.5"/>
<path d="M18.6659 9.13816V8.38086C18.6659 7.82857 19.1136 7.38086 19.6659 7.38086L28.1745 7.38087C28.7268 7.38087 29.1745 7.82858 29.1745 8.38086V9.13816C29.1745 9.69045 29.6222 10.1382 30.1745 10.1382H31.4498C34.2112 10.1382 36.4498 12.3767 36.4498 15.1382V44.9744C36.4498 46.6313 35.1066 47.9744 33.4498 47.9744H14.3906C12.7338 47.9744 11.3906 46.6313 11.3906 44.9744V16.1382C11.3906 12.8245 14.0769 10.1382 17.3906 10.1382L17.6659 10.1382C18.2181 10.1382 18.6659 9.69044 18.6659 9.13816Z" fill="#9BD9FF"/>
<path d="M23.9531 21.689C24.0072 21.7433 24.7416 22.491 25.459 23.5239C26.1924 24.58 26.8369 25.8353 26.8369 26.9185C26.8367 28.5317 25.5211 29.8501 23.9199 29.8501C22.3188 29.85 21.0031 28.5316 21.0029 26.9185C21.0029 25.8294 21.6488 24.5741 22.3818 23.52C23.0982 22.49 23.8308 21.7452 23.8867 21.689L23.9199 21.6548L23.9531 21.689ZM22.2119 25.8462C21.6148 25.8462 21.1416 26.324 21.1416 26.9185C21.1418 28.4507 22.389 29.7055 23.9199 29.7056C24.5169 29.7056 24.9891 29.2286 24.9893 28.6343C24.9893 28.0399 24.517 27.562 23.9199 27.562C23.5718 27.5619 23.2814 27.2733 23.2812 26.9185C23.2812 26.3242 22.8088 25.8464 22.2119 25.8462Z" fill="white" stroke="white"/>
</svg>
