<svg width="34" height="23" viewBox="0 0 34 23" fill="none" xmlns="http://www.w3.org/2000/svg">
<ellipse opacity="0.4" cx="17" cy="19.8333" rx="17" ry="2.83333" fill="#E7E6E6"/>
<path d="M9.71436 2C9.71436 0.895429 10.6098 0 11.7144 0H22.433C23.5375 0 24.433 0.895431 24.433 2V18.8398H9.71436V2Z" fill="#9BD9FF"/>
<rect x="23.6665" y="5.70996" width="4.47619" height="6.83117" rx="2" stroke="#9BD9FF" stroke-width="2"/>
<path d="M17.0053 7.18799L16.7128 7.49799C16.6181 7.59828 14.4243 9.95065 14.4243 11.9474C14.4243 13.4518 15.5857 14.6827 17.0053 14.6827C18.4248 14.6827 19.5862 13.4518 19.5862 11.9474C19.5862 9.95977 17.3924 7.59828 17.2978 7.49799L17.0053 7.18799ZM15.7148 11.4915C15.9557 11.4915 16.1449 11.6921 16.1449 11.9474C16.1449 12.4489 16.5321 12.8592 17.0053 12.8592C17.2462 12.8592 17.4354 13.0598 17.4354 13.3151C17.4354 13.5704 17.2462 13.771 17.0053 13.771C16.0589 13.771 15.2846 12.9504 15.2846 11.9474C15.2846 11.6921 15.4739 11.4915 15.7148 11.4915Z" fill="white"/>
</svg>
