<svg width="48" height="54" viewBox="0 0 48 54" fill="none" xmlns="http://www.w3.org/2000/svg">
<path opacity="0.4" d="M47.8402 49.7831C47.8402 51.7934 37.1308 53.4231 23.9201 53.4231C10.7094 53.4231 0 51.7934 0 49.7831C0 47.7728 10.7094 46.1431 23.9201 46.1431C37.1308 46.1431 47.8402 47.7728 47.8402 49.7831Z" fill="#D9D9D9"/>
<rect x="18.0479" width="9.95242" height="4.85714" rx="2" fill="#9BD9FF"/>
<path d="M18.9435 6.05732V4H27.2297V6.05732C30.8756 6.64513 37.836 10.6509 37.836 12.4143V16.694C37.836 17.2227 38.0446 17.7299 38.4335 18.0881C40.1211 19.6425 42.4763 21.6359 42.4763 26.3367C42.4763 31.3823 39.2603 33.4603 38.0043 35.9366C37.8846 36.1727 37.836 36.4363 37.836 36.7009V47.1429C37.836 48.7997 36.4929 50.1429 34.836 50.1429H12C10.3431 50.1429 9 48.8057 9 47.1489V12.4143C9 10.5333 15.629 6.7431 18.9435 6.05732Z" fill="#9BD9FF"/>
<path d="M36.7287 20.3492C37.9517 21.265 39.7626 23.3585 39.7626 26.4191C39.7626 29.7399 38.0003 32.0453 36.8424 33.2541C36.4908 33.6213 35.9962 33.8098 35.4878 33.8098H35.4292C34.3246 33.8098 33.4292 32.9143 33.4292 31.8098V22.0479C33.4292 20.9433 34.3246 20.0479 35.4292 20.0479H35.7369C36.092 20.0479 36.4444 20.1364 36.7287 20.3492Z" fill="white"/>
<path d="M23.4502 22.8853C23.5043 22.9396 24.2387 23.6873 24.9561 24.7202C25.6895 25.7763 26.334 27.0316 26.334 28.1147C26.3338 29.728 25.0182 31.0464 23.417 31.0464C21.8159 31.0463 20.5002 29.7279 20.5 28.1147C20.5 27.0257 21.1459 25.7704 21.8789 24.7163C22.5953 23.6863 23.3278 22.9415 23.3838 22.8853L23.417 22.8511L23.4502 22.8853ZM21.709 27.0425C21.1119 27.0425 20.6387 27.5203 20.6387 28.1147C20.6389 29.647 21.8861 30.9018 23.417 30.9019C24.014 30.9019 24.4862 30.4249 24.4863 29.8306C24.4863 29.2361 24.0141 28.7583 23.417 28.7583C23.0689 28.7582 22.7785 28.4696 22.7783 28.1147C22.7783 27.5205 22.3059 27.0427 21.709 27.0425Z" fill="white" stroke="white"/>
</svg>
