<svg width="34" height="38" viewBox="0 0 34 38" fill="none" xmlns="http://www.w3.org/2000/svg">
<ellipse opacity="0.4" cx="17.0002" cy="35.1433" rx="16.8913" ry="2.81522" fill="#D9D9D9"/>
<mask id="path-2-inside-1_525_3939" fill="white">
<rect x="15.1973" y="0.958496" width="3.0163" height="1.20652" rx="0.5"/>
</mask>
<rect x="15.1973" y="0.958496" width="3.0163" height="1.20652" rx="0.5" fill="#9BD9FF" stroke="#9BD9FF" stroke-width="1.20652" mask="url(#path-2-inside-1_525_3939)"/>
<path d="M11.3955 8.25913L15.4745 3.0113C15.5971 2.85364 15.6636 2.65964 15.6636 2.45995C15.6636 1.96376 16.0658 1.56152 16.562 1.56152H16.8492C17.3453 1.56152 17.7476 1.96376 17.7476 2.45995C17.7476 2.65964 17.8141 2.85364 17.9367 3.0113L22.0157 8.25913C22.2885 8.61011 22.4366 9.04198 22.4366 9.48652V12.0235C22.4366 12.5758 21.9888 13.0235 21.4366 13.0235H11.9746C11.4223 13.0235 10.9746 12.5758 10.9746 12.0235V9.48652C10.9746 9.04198 11.1227 8.61011 11.3955 8.25913Z" fill="#9BD9FF" stroke="#9BD9FF" stroke-width="0.5"/>
<rect x="11.2246" y="11.4639" width="10.962" height="5.53261" rx="0.75" fill="white" stroke="#9BD9FF" stroke-width="0.5"/>
<path d="M11.0243 20.2757L11.3957 19.1421C11.4606 18.9439 11.4606 18.7301 11.3957 18.5319C11.188 17.8981 11.6602 17.2466 12.3271 17.2466H21.0841C21.751 17.2466 22.2231 17.8981 22.0155 18.5319C21.9506 18.7301 21.9506 18.9439 22.0155 19.1421L22.3869 20.2757C22.4198 20.3762 22.4366 20.4813 22.4366 20.587V32.7411C22.4366 33.8457 21.5411 34.7411 20.4366 34.7411H12.9746C11.87 34.7411 10.9746 33.8457 10.9746 32.7411V20.587C10.9746 20.4813 10.9914 20.3762 11.0243 20.2757Z" fill="#9BD9FF" stroke="#9BD9FF" stroke-width="0.5"/>
<path d="M16.7051 12.9009C16.8256 13.0464 16.9884 13.2544 17.1484 13.4976C17.4666 13.9811 17.7139 14.511 17.7139 14.936C17.7138 15.2253 17.6108 15.4791 17.4502 15.6704C17.419 15.3008 17.1285 14.9721 16.7129 14.9683C16.708 14.9626 16.7032 14.9517 16.7031 14.936C16.7031 14.5385 16.395 14.1694 15.9512 14.1694C15.93 14.1694 15.9092 14.1707 15.8887 14.1724C15.9876 13.9464 16.1175 13.7159 16.2627 13.4956C16.4225 13.2532 16.5846 13.046 16.7051 12.9009Z" fill="#9BD9FF" stroke="#9BD9FF"/>
</svg>
