<svg width="150" height="243" viewBox="0 0 150 243" fill="none" xmlns="http://www.w3.org/2000/svg">
<path fill-rule="evenodd" clip-rule="evenodd" d="M44.5684 102.171L63.2171 176.54L71.9885 232.378H80.7924L72.0042 102.171H44.5684Z" fill="#997659"/>
<path fill-rule="evenodd" clip-rule="evenodd" d="M36.1879 102.171C37.4892 140.806 36.976 161.878 36.6847 165.388C36.3935 168.898 34.7401 192.406 23.4736 233.556H32.6304C47.5511 194.08 52.7597 170.572 54.471 165.388C56.1823 160.204 61.2365 139.132 68.6153 102.171H36.1879Z" fill="#B28B67"/>
<path fill-rule="evenodd" clip-rule="evenodd" d="M44.168 102.171C49.0188 127.762 57.4087 168.611 69.3375 224.719H82.2142C83.1653 167.129 79.1194 129.226 72.1129 102.171H44.168Z" fill="#69A1AC"/>
<path fill-rule="evenodd" clip-rule="evenodd" d="M36.1231 102.171C37.3975 140.806 34.0948 178.868 23.8643 225.32H37.603C52.551 186.433 63.2648 148.559 70.5869 102.171H36.1231Z" fill="#89C5CC"/>
<path fill-rule="evenodd" clip-rule="evenodd" d="M22.168 241.215L22.6732 231.789C25.6313 232.79 29.3364 232.397 33.7885 230.61C38.5756 234.534 44.6019 237.214 51.8675 238.649C52.4218 238.758 52.7944 239.367 52.6998 240.009C52.6937 240.05 52.6857 240.091 52.6757 240.132L51.9772 242.983H33.7885H23.1785L22.168 241.215Z" fill="#191847"/>
<path fill-rule="evenodd" clip-rule="evenodd" d="M70.0234 241.215L70.5287 231.789C73.4868 232.79 77.1919 232.397 81.644 230.61C86.4311 234.534 92.4574 237.214 99.7229 238.649C100.277 238.758 100.65 239.367 100.555 240.009C100.549 240.05 100.541 240.091 100.531 240.132L99.8327 242.983H81.644H71.0339L70.0234 241.215Z" fill="#191847"/>
<path fill-rule="evenodd" clip-rule="evenodd" d="M122.165 36.798C122.164 30.6095 124.121 24.1989 129.141 22.2104C148.864 22.2104 141.112 33.9439 140.251 40.2864C136.232 53.6055 135.083 54.2398 132.787 54.2398C130.49 54.2398 121.474 54.4568 122.166 48.5231L104.482 60.6268L97.5617 43.2436L122.165 36.798Z" fill="#B28B67"/>
<path fill-rule="evenodd" clip-rule="evenodd" d="M120.999 44.4344C119.261 35.8922 114.309 30.0692 115.065 26.2512C115.569 23.7059 116.913 22.123 119.097 21.5026C120.226 16.4563 123.868 14.3099 130.023 15.0635C139.255 16.1937 144.89 20.429 142.457 29.7483C140.22 29.7483 137.519 28.8547 133.785 30.3857C132.601 30.8715 131.753 32.378 131.243 34.9052H129.556C127.918 31.9061 126.303 30.804 124.711 31.5989C123.119 32.3938 122.757 34.3247 123.626 37.3915L122.794 44.4344H120.999Z" fill="#191847"/>
<path fill-rule="evenodd" clip-rule="evenodd" d="M109.876 62.0895C80.8092 94.0573 105.264 35.6534 87.2298 46.0444C74.6283 53.4381 80.345 46.0444 77.7559 48.2523C74.0234 51.4353 69.8691 51.4353 69.8691 51.4353C66.424 48.5814 53.2176 44.1775 50.3471 46.0444C47.4766 47.9113 46.4274 64.9068 44.6053 66.9744L32.5477 66.9744C33.6961 43.8245 37.7152 31.4567 40.5862 30.8224C58.9621 26.7622 70.9204 32.5563 97.2385 41.2088L99.8313 38.6507C100.891 37.6049 102.518 37.7063 103.465 38.8771L115.036 53.1871C115.983 54.358 115.891 56.1549 114.831 57.2007L109.876 62.0895Z" fill="#CDBC22"/>
<path fill-rule="evenodd" clip-rule="evenodd" d="M36.2799 66.9745L43.4571 66.9745C43.4571 70.7799 42.5963 72.6827 42.5963 74.2683C42.3092 77.1224 42.3507 75.9592 41.735 79.0251C41.1608 80.9279 40.5866 81.8792 38.2765 83.8541C34.3482 86.6366 34.3525 92.3836 29.1032 89.8073C28.4578 89.4906 29.6826 84.5782 31.1128 83.1477C34.6761 79.584 34.9187 75.6451 35.4733 73.8165C36.2295 71.3227 36.2799 70.1457 36.2799 66.9745Z" fill="#947150"/>
<path fill-rule="evenodd" clip-rule="evenodd" d="M110.592 61.2573C81.5254 93.2251 91.2165 119.773 75.9565 128.726C63.355 136.12 23.2582 115.519 27.3719 99.4129C29.0371 92.8932 46.647 58.0681 73.3594 49.1657C69.9143 46.3117 56.7079 41.9078 53.8374 43.7748C50.9669 45.6417 49.9177 62.6372 48.0956 64.7048L36.038 64.7048C37.1864 41.5549 41.2055 29.1871 44.0765 28.5528C62.4524 24.4926 71.6366 31.7241 97.9547 40.3766L100.547 37.8185C101.607 36.7727 103.234 36.8741 104.181 38.0449L115.752 52.3549C116.699 53.5258 116.607 55.3227 115.547 56.3685L110.592 61.2573Z" fill="#F6E01C"/>
<path fill-rule="evenodd" clip-rule="evenodd" d="M110.592 61.2573C81.5254 93.2251 91.2165 119.773 75.9565 128.726C63.355 136.12 23.2582 115.519 27.3719 99.4129C29.0371 92.8932 46.647 58.0681 73.3594 49.1657C69.9143 46.3117 56.7079 41.9078 53.8374 43.7748C50.9669 45.6417 49.9177 62.6372 48.0956 64.7048L36.038 64.7048C37.1864 41.5549 41.2055 29.1871 44.0765 28.5528C62.4524 24.4926 71.6366 31.7241 97.9547 40.3766L100.547 37.8185C101.607 36.7727 103.234 36.8741 104.181 38.0449L115.752 52.3549C116.699 53.5258 116.607 55.3227 115.547 56.3685L110.592 61.2573Z" fill="#F6E01C"/>
<path fill-rule="evenodd" clip-rule="evenodd" d="M39.7701 64.7048L46.9473 64.7048C46.9473 68.5103 46.0865 70.413 46.0865 71.9986C45.7994 74.8527 45.8409 73.6895 45.2252 76.7555C44.651 78.6582 44.0769 79.6096 41.7667 81.5845C37.8384 84.3669 37.8427 90.1139 32.5934 87.5376C31.9481 87.2209 33.1728 82.3085 34.603 80.8781C38.1663 77.3143 38.4089 73.3755 38.9635 71.5468C39.7197 69.0531 39.7701 67.876 39.7701 64.7048Z" fill="#B28B67"/>
</svg>
