<svg width="124" height="265" viewBox="0 0 124 265" fill="none" xmlns="http://www.w3.org/2000/svg">
<path fill-rule="evenodd" clip-rule="evenodd" d="M38.5088 133.835L63.4888 204.995L85.0407 257.247L93.6018 255.193L54.6894 130.627L38.5088 133.835Z" fill="#997659"/>
<path fill-rule="evenodd" clip-rule="evenodd" d="M35.9785 166.399C37.2798 205.034 28.2698 206.389 27.9785 209.899C27.6873 213.409 12.7431 213.306 1.47656 254.455H10.6334C25.554 214.979 26.2672 230.583 27.9785 225.399C29.6898 220.216 50.0996 197.86 57.4785 160.899L35.9785 166.399Z" fill="#B28B67"/>
<path fill-rule="evenodd" clip-rule="evenodd" d="M35.998 133.91C44.859 158.403 59.6417 197.397 80.3463 250.891L93.059 248.842C84.8345 191.836 74.8091 155.059 63.587 129.464L35.998 133.91Z" fill="#69A1AC"/>
<path fill-rule="evenodd" clip-rule="evenodd" d="M28.2912 124.382C13.6846 140.344 49.501 175.9 0.000697199 246.077L15.9784 246.077C72.9784 174.399 51.9784 198.899 62.4239 129.148L28.2912 124.382Z" fill="#89C5CC"/>
<path fill-rule="evenodd" clip-rule="evenodd" d="M82.0078 262.44L82.5131 253.013C85.4712 254.014 89.1763 253.622 93.6284 251.835C98.4155 255.759 104.442 258.439 111.707 259.874C112.262 259.983 112.634 260.592 112.54 261.233C112.534 261.275 112.526 261.316 112.516 261.357L111.817 264.207H93.6284H83.0183L82.0078 262.44Z" fill="#191847"/>
<path fill-rule="evenodd" clip-rule="evenodd" d="M0.500977 263.115L1.00622 253.688C3.96434 254.689 7.66945 254.297 12.1215 252.51C16.9086 256.434 22.9349 259.114 30.2005 260.549C30.7548 260.658 31.1275 261.267 31.0329 261.908C31.0267 261.95 31.0187 261.991 31.0087 262.032L30.3102 264.882H12.1215H1.51146L0.500977 263.115Z" fill="#191847"/>
<path fill-rule="evenodd" clip-rule="evenodd" d="M61.7516 28.4628C60.8995 17.9976 63.4013 14.3608 67.9033 11.379C87.2011 7.30841 82.0384 20.3891 82.5046 26.7728C81.3209 40.6347 80.3282 41.4923 78.0809 41.9663C75.8337 42.4403 68.6524 39.28 68.6524 39.28C65.651 45.5443 61.3309 52.8342 61.3309 52.8342C61.3309 52.8342 47.7499 55.045 48.9433 49.8262C50.793 41.7378 62.2257 34.2852 61.7516 28.4628Z" fill="#B28B67"/>
<path fill-rule="evenodd" clip-rule="evenodd" d="M64.5236 34.805C61.0597 26.8054 55.0125 22.1299 54.9645 18.238C54.9325 15.6434 55.9207 13.8172 57.9291 12.7596C57.9925 7.58885 61.1132 4.73697 67.2911 4.20394C76.5579 3.40439 82.9457 6.3854 82.4881 16.0063C80.2993 16.468 77.4726 16.151 74.1349 18.4197C73.0758 19.1396 72.5576 20.7886 72.5801 23.3666L70.929 23.7149C68.7076 21.1184 66.9001 20.3733 65.5065 21.4797C64.113 22.5861 64.1574 24.55 65.6398 27.3716L66.2801 34.4345L64.5236 34.805Z" fill="#191847"/>
<path d="M112.105 61.419C113.256 59.9568 115.447 59.885 116.692 61.2687L119 63.8347L120.831 67.3878C121.668 69.0123 120.87 71.0014 119.143 71.5976L111.356 74.2853L107.137 67.7267L112.105 61.419Z" fill="#B28B67"/>
<path d="M108.36 66.8349L99 73.8349L102.12 80.8349L112 73.8349L108.36 66.8349Z" fill="#B28B67"/>
<path d="M14 73.8349C14 68.2349 34.6667 55.5016 45 49.8349C39.8333 69.8349 28.3 109.135 23.5 106.335C17.5 102.835 14 80.8349 14 73.8349Z" fill="#CDBC22"/>
<path d="M49 39.3349L48 43.3349C48 43.3349 42.4534 46.6329 40.4997 49.8349C22.5 79.3349 21.5003 103.335 19.5003 122.335C17.5003 141.335 44.5003 141.335 46.5003 141.335C46.5003 141.335 58.5003 144.335 72.5003 135.835C78.5 132.192 75.0003 118.335 73.5003 98.3349C73.5003 98.3349 112.619 81.6428 110.5 76.8349C108.382 72.027 105.217 63.1209 101.5 66.8349C101 67.3349 75.0003 80.3349 72.5003 81.3349C68.5336 82.9216 64.9997 54.3349 71 49.3349C73.9153 46.9056 70.5 44.5016 69.5 44.3349C64.6667 42.3349 54.4 38.2349 52 37.8349C49.6 37.4349 49 38.6682 49 39.3349Z" fill="#F6E01C"/>
<path d="M28.3434 74.7065C28.3434 74.7065 25.4736 83.0891 24.8206 86.184L24.39 77.1742C27.2715 74.1587 28.3434 74.7065 28.3434 74.7065Z" fill="white" fill-opacity="0.8"/>
</svg>
