<svg width="149" height="226" viewBox="0 0 149 226" fill="none" xmlns="http://www.w3.org/2000/svg">
<path fill-rule="evenodd" clip-rule="evenodd" d="M34.5703 85.1713L53.2191 159.54L61.9905 215.378H70.7944L62.0062 85.1713H34.5703Z" fill="#997659"/>
<path fill-rule="evenodd" clip-rule="evenodd" d="M26.1899 85.1713C27.4911 123.806 26.9779 144.878 26.6867 148.388C26.3954 151.898 24.7421 175.406 13.4756 216.556H22.6324C37.553 177.08 42.7617 153.572 44.4729 148.388C46.1842 143.204 51.2384 122.132 58.6173 85.1713H26.1899Z" fill="#B28B67"/>
<path fill-rule="evenodd" clip-rule="evenodd" d="M34.1699 85.1713C39.0208 110.762 47.4106 151.611 59.3395 207.719H72.2162C73.1673 150.129 69.1214 112.226 62.1149 85.1713H34.1699Z" fill="#69A1AC"/>
<path fill-rule="evenodd" clip-rule="evenodd" d="M26.125 85.1713C27.3994 123.806 24.0967 161.868 13.8662 208.32H27.6049C42.553 169.433 53.2667 131.559 60.5889 85.1713H26.125Z" fill="#89C5CC"/>
<path fill-rule="evenodd" clip-rule="evenodd" d="M12.1699 224.215L12.6752 214.789C15.6333 215.79 19.3384 215.397 23.7905 213.61C28.5776 217.534 34.6039 220.214 41.8694 221.649C42.4237 221.758 42.7964 222.367 42.7018 223.009C42.6957 223.05 42.6876 223.091 42.6777 223.132L41.9792 225.983H23.7905H13.1804L12.1699 224.215Z" fill="#191847"/>
<path fill-rule="evenodd" clip-rule="evenodd" d="M60.0254 224.215L60.5306 214.789C63.4888 215.79 67.1939 215.397 71.646 213.61C76.433 217.534 82.4593 220.214 89.7249 221.649C90.2792 221.758 90.6519 222.367 90.5573 223.009C90.5511 223.05 90.5431 223.091 90.5332 223.132L89.8347 225.983H71.646H61.0359L60.0254 224.215Z" fill="#191847"/>
<path fill-rule="evenodd" clip-rule="evenodd" d="M120.083 52.5331C119.292 46.3953 120.414 39.7872 125.14 37.1741C144.701 34.6564 138.511 47.2834 138.467 53.6839C136.18 67.4072 135.122 68.1829 132.845 68.4761C130.567 68.7692 121.652 70.1355 121.581 64.1621L106.429 71.8761L96.5039 62.0667L120.083 52.5331Z" fill="#B28B67"/>
<path fill-rule="evenodd" clip-rule="evenodd" d="M120.009 61.0879C117.195 52.8375 111.54 47.6943 111.803 43.811C111.978 41.2221 113.109 39.4807 115.195 38.5866C115.671 33.4375 119.009 30.8437 125.21 30.8053C134.511 30.7477 140.64 34.2289 139.416 43.7827C137.198 44.0682 134.405 43.5267 130.897 45.5219C129.784 46.1549 129.136 47.7573 128.953 50.3289L127.279 50.5443C125.272 47.7789 123.53 46.8919 122.052 47.8836C120.575 48.8752 120.463 50.8365 121.715 53.7673L121.79 60.8588L120.009 61.0879Z" fill="#191847"/>
<path fill-rule="evenodd" clip-rule="evenodd" d="M88.9997 43.3539C84.0027 42.5 74.6324 40.5 74.6324 40.5L73.0031 33C70.9989 32 68.4061 31 68.4061 31C64.961 28.146 57.3306 27.3012 54.4601 29.1681C51.5896 31.035 36.4282 47.9063 34.6062 49.9739L22.5486 49.9739C29.4994 27 54.4607 17 54.4607 17C66.7977 16.899 60.5 17.5 69.5031 21L71.5027 22.5C73.0031 23 73.6856 23.497 74.6324 24.6679L97.0723 43.3539C98.019 44.5248 97.9272 46.3217 96.8673 47.3675L88.9997 43.3539Z" fill="#CDBC22"/>
<path fill-rule="evenodd" clip-rule="evenodd" d="M26.2818 49.9745L33.459 49.9745C33.459 53.7799 32.5982 55.6827 32.5982 57.2683C32.3111 60.1224 32.3527 58.9592 31.7369 62.0251C31.1628 63.9279 30.5886 64.8792 28.2784 66.8541C24.3501 69.6366 24.3544 75.3836 19.1052 72.8073C18.4598 72.4906 19.6845 67.5782 21.1148 66.1477C24.6781 62.584 24.9207 58.6451 25.4752 56.8165C26.2314 54.3227 26.2818 53.1457 26.2818 49.9745Z" fill="#947150"/>
<path fill-rule="evenodd" clip-rule="evenodd" d="M105 76.7947C61.9552 61.9059 77.5005 96.5001 65.9588 111.727C53.3573 119.121 13.2605 98.5204 17.3743 82.414C19.0395 75.8943 41.0446 39.5002 74.0031 43.0002C68.0031 37.5002 67.5035 34.5 60.5029 34.5C53.5024 34.5 39.9625 52.0001 36.5575 52.0001L24.4999 52.0001C24.4995 40.2943 49.5 17.5 58.5028 17.5C66.0045 17.5 67.0059 15.5002 92.0031 39.0002L105 52.0001C106.06 50.9543 112.999 52.2953 113 54.5001L113 64.7947C112.999 68.5002 108.999 82.2947 105 76.7947Z" fill="#F6E01C"/>
<path fill-rule="evenodd" clip-rule="evenodd" d="M29.1507 52L35.9996 52C35.6103 55.7855 34.5904 55.907 34.4282 57.4843C33.8507 60.2941 34.4251 57.5132 33.499 60.5C32.7332 62.334 31.6507 62.7718 29.1507 64.5C24.9583 66.866 28.6694 77.558 20.4991 75C20.582 73.4384 20.5276 66.4191 22.0967 65.1425C24.499 61 25.7603 58.2623 26.499 56.5C27.5064 54.0967 28.8263 55.1546 29.1507 52Z" fill="#B28B67"/>
</svg>
