<svg width="39" height="58" viewBox="0 0 39 58" fill="none" xmlns="http://www.w3.org/2000/svg">
<path d="M16.8209 0.914307C24.291 3.76005 29.7157 4.47148 31.4943 4.47148C28.3817 6.69472 32.3836 14.2537 34.6068 19.1448C36.83 24.036 38.164 28.9271 38.164 33.3736C38.164 36.9307 36.9783 44.9344 36.3854 48.4916C28.2039 52.4044 18.4513 56.0506 14.5977 57.3845L6.59403 56.4952C4.45973 53.2937 5.70474 45.6755 6.59403 42.2665C7.48333 38.5611 8.37261 29.5496 4.81543 23.1467C1.25826 16.7437 0.665395 6.5465 0.81361 2.24825C5.43794 3.3154 13.4119 1.8036 16.8209 0.914307Z" fill="#E2E2E2" stroke="white"/>
</svg>
