<svg width="74" height="57" viewBox="0 0 74 57" fill="none" xmlns="http://www.w3.org/2000/svg">
<path d="M26.9428 35.8237C20.1842 40.8037 7.2301 45.6059 1.5979 47.3845C9.06797 50.9417 11.2319 54.7953 11.3801 56.2774C24.4231 52.8685 52.0209 45.428 58.0681 42.938C65.6271 39.8255 65.6271 34.0451 66.961 30.9325C68.0282 28.4425 71.5557 25.745 73.1861 24.7075C72.5932 23.67 71.4964 20.9724 71.8521 18.4824C72.2968 15.3699 71.4075 11.3681 69.6289 7.81089C68.206 4.96515 67.2575 1.88226 66.961 0.696533C62.9592 18.0378 59.402 16.7038 53.177 18.4824C46.9519 20.261 35.3911 29.5986 26.9428 35.8237Z" fill="#E2E2E2" stroke="white"/>
</svg>
