<svg width="88" height="26" viewBox="0 0 88 26" fill="none" xmlns="http://www.w3.org/2000/svg">
<path d="M86.2841 1.06506C86.1637 1.11858 86.0375 1.17294 85.9057 1.22809C83.9678 2.57428 78.0957 11.834 81.393 13.0705C84.2387 14.1377 85.8395 16.7759 86.2841 17.9617C83.3198 17.8134 74.3676 18.3174 62.2732 21.5188C47.1552 25.5207 35.1497 25.5207 20.0317 22.8528C7.93729 20.7185 2.24581 9.21693 0.911865 3.73295C3.04617 6.57869 6.84049 7.88299 8.47087 8.17942C9.21194 8.47585 16.6524 8.89085 40.4855 8.17942C63.7807 7.48404 80.1941 3.61677 85.9057 1.22809C86.0584 1.122 86.1867 1.06506 86.2841 1.06506Z" fill="#B4B4B4" stroke="white"/>
</svg>
