<svg width="50" height="22" viewBox="0 0 50 22" fill="none" xmlns="http://www.w3.org/2000/svg">
<path d="M1.40959 3.38329C4.14969 6.76396 16.8532 6.38407 21.3383 5.06492C22.6722 4.47206 27.2076 3.28633 34.6777 3.28633C42.1478 3.28633 46.6832 2.39704 48.0171 1.95239C46.2385 4.0867 45.201 15.2918 44.9046 20.6276C40.9028 16.1811 28.8973 18.849 20.0043 18.4043C11.4285 17.9755 6.16069 15.8927 1.40959 3.38329C1.07098 2.96553 0.884521 2.49033 0.884521 1.95239C1.05893 2.44391 1.23391 2.92073 1.40959 3.38329Z" fill="#B4B4B4"/>
<path d="M21.3383 5.06492C16.299 6.54708 0.884521 6.8435 0.884521 1.95239C5.77564 15.7364 11.1114 17.9597 20.0043 18.4043C28.8973 18.849 40.9028 16.1811 44.9046 20.6276C45.201 15.2918 46.2385 4.0867 48.0171 1.95239C46.6832 2.39704 42.1478 3.28633 34.6777 3.28633C27.2076 3.28633 22.6722 4.47206 21.3383 5.06492Z" stroke="white"/>
</svg>
