<svg width="65" height="119" viewBox="0 0 65 119" fill="none" xmlns="http://www.w3.org/2000/svg">
<path d="M48 87.5C24.0001 89.5 11.3719 111.095 7.99982 118C3.66431 95.8403 -3.18975 78.9078 4.99989 25.5L23 0.5C24.2846 2.90866 28.7507 7.72923 38 8.5C47.2492 9.27077 54.5913 7.28462 57 6C56.7548 8.54383 57.5 11 58 12.5C58.7992 14.8976 59.5 16.5 61 20.5C62.5 24.5 63.5 28.5 64.5 30.5C60.1667 35 53 49.5 52 52C51 54.5 48.1666 63.5 46.4999 69C43.6095 76.226 46.0731 84.1279 48 87.5Z" fill="#B4B4B4" stroke="white" stroke-width="0.5"/>
</svg>
