<svg width="60" height="81" viewBox="0 0 60 81" fill="none" xmlns="http://www.w3.org/2000/svg">
<path d="M41.005 72.0084L41.0049 80.1978L31.3702 76.344L27.9982 58.5199L13.5464 77.3074L12.5829 67.6728L11.1378 56.5929L7.2839 51.2939C7.2839 51.2939 1.50311 45.0314 0.539648 37.8054C-0.102661 32.9881 0.92523 24.895 2.46677 19.4996C4.00832 14.1042 7.7656 8.41974 10.1743 6.49282L10.1807 6.48838C12.2723 5.04034 17.412 1.48202 28.9618 0.712033C40.5234 -0.0587381 49.6762 6.97454 53.0483 9.86493C55.1358 12.7553 57.3937 14.7443 58.8291 23.8352C60.2743 32.9881 55.7781 36.1996 56.4204 38.2871C57.8656 41.1775 57.3839 44.0679 56.9023 47.9218C56.4245 51.7459 51.1212 73.4536 49.676 73.4536C46.5689 73.4536 43.0925 73.1324 41.005 72.0084Z" fill="#E2E2E2" stroke="white" stroke-width="0.5"/>
</svg>
