<svg width="46" height="51" viewBox="0 0 46 51" fill="none" xmlns="http://www.w3.org/2000/svg">
<path d="M1.82099 28.239C1.67277 24.0889 2.12738 13.1901 8.49065 10.0084C12.0478 8.22983 15.605 6.89589 19.6068 6.0066C22.7763 5.30227 31.8726 2.07027 35.9371 1.14285C35.9788 1.13108 36.0194 1.12201 36.0586 1.11548C36.0187 1.12436 35.9781 1.13349 35.9371 1.14285C35.0327 1.39795 33.6 2.9201 34.2801 7.34054C34.9915 11.9649 41.9873 23.7925 45.3962 29.1282L43.173 35.798C39.764 40.6891 30.3672 50.4713 20.0513 50.4713C9.73553 50.4713 2.85846 48.0999 1.82095 46.4695C0.7953 44.2463 0.426443 36.7762 1.82099 28.239Z" fill="#E2E2E2" stroke="white"/>
</svg>
