<svg width="67" height="29" viewBox="0 0 67 29" fill="none" xmlns="http://www.w3.org/2000/svg">
<path d="M23.5466 10.144C30.3053 5.16394 36.4414 1.84391 38.6646 0.806396C38.0736 1.10283 39.0247 1.87355 47.5576 2.58499C56.0905 3.29642 62.6738 7.92075 64.8989 10.144C69.3453 17.703 60.0077 21.7048 55.5613 21.2602C52.0041 20.9044 46.0755 20.5191 43.5558 20.3709C41.1843 20.9637 35.2854 22.683 30.661 24.8173C26.0367 26.9516 20.1377 26.5959 17.7663 26.1513C17.1734 27.1888 13.6754 28.6413 4.42679 26.1513C-4.82187 23.6613 5.31608 17.703 11.5411 15.0351C12.7269 15.4798 16.788 15.124 23.5466 10.144Z" fill="#B4B4B4" stroke="white"/>
</svg>
