<svg width="64" height="39" viewBox="0 0 64 39" fill="none" xmlns="http://www.w3.org/2000/svg">
<path d="M23.5654 16.2267C28.1898 12.3138 32.3102 8.96416 33.7923 7.77843C39.1282 7.77843 40.4618 9.1124 44.4637 13.5589C47.6651 17.116 55.8763 21.2661 59.5817 22.8965C59.137 22.6 58.2477 19.1614 58.2477 7.77843C58.2477 -3.60454 59.137 0.960508 59.5817 4.6659C58.6924 9.55702 62.2496 13.1142 62.6942 19.3393C63.1389 25.5643 60.471 29.5661 55.5798 29.5661C50.6887 29.5661 46.6869 31.3447 40.4618 34.0126C35.4818 36.1469 27.1225 37.2734 23.5654 37.5698C-2.66876 39.3484 -0.000874043 30.9001 1.33307 29.5661C2.40022 28.499 10.6707 23.4893 14.6725 21.1178C15.71 21.1178 18.9411 20.1396 23.5654 16.2267Z" fill="#B4B4B4" stroke="white"/>
</svg>
