<svg width="42" height="30" viewBox="0 0 42 30" fill="none" xmlns="http://www.w3.org/2000/svg">
<path d="M13.4928 0.266724L2.41297 1.23019C2.41297 5.46943 3.05528 11.9889 3.37643 14.7187C2.57355 17.1273 0.967773 22.4264 0.967773 24.3533C0.967773 26.762 4.3399 29.1706 8.19375 29.1706C11.2768 29.1706 14.938 28.5283 16.3832 28.2072C18.3101 26.9226 22.6457 24.0643 24.5726 22.9081C26.9813 21.4629 34.689 23.8716 38.0611 22.9081C41.4333 21.9447 40.4698 19.536 40.9515 18.0908C41.4333 16.6456 40.4698 17.1273 39.5063 16.1639C38.7356 15.3931 37.2583 16.485 36.6159 17.1273L20.2371 10.8648L13.4928 0.266724Z" fill="#B4B4B4" stroke="white" stroke-width="0.5"/>
</svg>
