<svg width="87" height="35" viewBox="0 0 87 35" fill="none" xmlns="http://www.w3.org/2000/svg">
<path d="M42.454 3.9417C52.4141 1.09596 75.5062 1.27384 85.5848 1.71849C78.1391 7.41232 73.2819 12.6747 68.0384 18.3556L67.7989 18.6151C63.1746 19.6822 59.647 24.9883 58.4613 27.508C58.0167 28.1009 55.1709 29.2866 47.3451 29.2866C37.5629 29.2866 41.1201 29.2866 27.336 31.0652C21.7038 32.5473 10.6173 33.3773 11.3287 24.8401C10.884 27.8044 8.48287 33.822 2.43566 34.1777C1.69459 31.658 0.657075 25.8183 2.43566 22.6169C4.21425 19.4154 14.1448 13.8722 18.8877 11.5007C40.5865 10.7893 43.6397 6.16494 42.454 3.9417Z" fill="#E2E2E2" stroke="white"/>
</svg>
