<svg width="111" height="43" viewBox="0 0 111 43" fill="none" xmlns="http://www.w3.org/2000/svg">
<path d="M0.793604 34.29C0.0821682 24.6856 8.20439 17.8381 12.3544 15.6148C11.0205 18.7273 12.3544 20.0613 14.5777 20.0613C16.8009 20.0613 25.6939 20.5059 31.4743 21.3952C37.2547 22.2845 46.1476 20.0613 49.7048 18.7273C52.5505 17.6602 56.2263 17.9863 57.7084 18.2827C63.0442 17.927 68.2318 13.3916 70.1586 11.1683C74.0122 9.38976 83.9426 5.74365 92.8356 5.38793C101.729 5.03221 107.212 2.57183 108.843 1.38611C110.325 6.12901 111.333 17.6602 103.507 25.8417C93.7249 36.0686 32.8082 35.6239 27.4724 36.0686C22.1367 36.5132 17.2456 31.1775 15.9116 30.7328C14.5777 30.2882 12.3544 35.1793 10.1312 37.4025C8.35262 39.1811 4.35079 40.5151 2.5722 40.9597C2.27577 42.7383 1.50504 43.8944 0.793604 34.29Z" fill="#E2E2E2" stroke="white"/>
</svg>
