<svg width="53" height="34" viewBox="0 0 53 34" fill="none" xmlns="http://www.w3.org/2000/svg">
<path d="M2.34364 33.1628C3.05508 31.74 2.04721 31.3843 1.45435 31.3843C3.8258 28.8646 9.45799 23.1138 13.0152 20.2681C17.4615 16.711 20.574 14.9324 23.6865 13.1538L23.6867 13.1537C26.1767 11.7308 31.5421 9.30011 33.9136 8.26261C37.7672 5.29829 45.2076 -0.363548 44.1405 0.703605C43.0733 1.77076 46.0673 5.59472 47.6977 7.37331C49.6245 8.41082 53.0334 11.3751 51.2548 14.9323C49.4762 18.4895 42.2137 23.2324 38.8047 25.1592C33.0243 27.2342 19.7738 31.3843 13.0152 31.3843C6.25654 31.3843 3.08472 32.57 2.34364 33.1628Z" fill="#B4B4B4" stroke="white"/>
</svg>
