<svg width="37" height="118" viewBox="0 0 37 118" fill="none" xmlns="http://www.w3.org/2000/svg">
<path d="M8.01697 27.967C5.17122 22.2755 5.34908 10.774 5.79373 5.73467L7.12751 12.4044C8.31324 11.8115 11.3072 10.359 13.7972 9.29184C16.2872 8.22469 19.2812 4.10429 20.4669 2.17749C20.4669 7.51326 29.9527 15.9616 34.6956 19.5187C30.0713 19.163 29.5081 27.0777 29.8045 31.0796C30.6938 33.3028 31.672 43.085 28.4706 64.4281C25.2691 85.7711 26.2473 108.3 27.1366 116.896L18.2437 112.005C16.7615 110.968 13.0858 108.092 10.24 104.891C7.3943 101.69 3.42212 101.482 1.79175 101.778C4.31141 95.7016 9.08399 81.6804 8.01697 74.2103C6.94994 66.7402 7.57237 60.4263 8.01697 58.203C9.20269 50.4958 10.8627 33.6585 8.01697 27.967Z" fill="#E2E2E2" stroke="white"/>
</svg>
