<svg width="57" height="131" viewBox="0 0 57 131" fill="none" xmlns="http://www.w3.org/2000/svg">
<path d="M44.0652 6.92033C47.2767 5.15398 53.2181 1.4286 53.2181 0.657827C53.2181 -0.305637 56.5902 3.54822 56.5902 9.81073C56.5902 16.0733 52.7363 42.5685 49.3642 50.2762C45.9921 57.9839 20.4603 114.828 17.0882 126.39L1.25538 130.461C0.887574 130.579 0.543926 130.662 0.227539 130.725L1.25538 130.461C3.68771 129.681 7.17665 127.374 10.8256 119.164C16.6064 106.157 24.0389 75.808 33.9488 64.2464C45.5103 50.7579 44.0652 45.9406 45.9921 38.7146C48.0475 31.0069 48.8825 10.2925 44.0652 6.92033Z" fill="#E2E2E2" stroke="white" stroke-width="0.5"/>
</svg>
