<svg width="21" height="21" viewBox="0 0 21 21" fill="none" xmlns="http://www.w3.org/2000/svg">
<g clip-path="url(#clip0_1023_1384)">
<path d="M10.5 0C4.725 0 0 4.725 0 10.5C0 16.275 4.725 21 10.5 21C16.275 21 21 16.275 21 10.5C21 4.725 16.275 0 10.5 0ZM10.5 2.625C12.2325 2.625 13.8075 3.17625 15.0938 4.095L4.095 15.0938C3.17625 13.8075 2.625 12.2325 2.625 10.5C2.625 6.1425 6.1425 2.625 10.5 2.625ZM16.905 5.90625C17.8238 7.1925 18.375 8.7675 18.375 10.5C18.375 14.8575 14.8575 18.375 10.5 18.375C8.7675 18.375 7.1925 17.8238 5.90625 16.905L16.905 5.90625Z" fill="#ED6A5E"/>
</g>
<defs>
<clipPath id="clip0_1023_1384">
<rect width="21" height="21" fill="white"/>
</clipPath>
</defs>
</svg>
