<svg width="20" height="22" viewBox="0 0 20 22" fill="none" xmlns="http://www.w3.org/2000/svg">
<g clip-path="url(#clip0_1004_907)">
<path d="M15.1008 17.3045C15.4277 17.8371 15.531 18.4677 15.3909 19.0807C15.2532 19.6937 14.8894 20.2163 14.3682 20.5479L12.8466 21.5201C12.3476 21.8392 11.7798 22 11.2119 22C10.7178 22 10.2262 21.8794 9.78123 21.6332C7.78762 20.5378 4.95822 18.4903 2.80483 14.9706C0.653895 11.4534 0.0958813 7.95636 0.00246931 5.64255C-0.0417785 4.53213 0.511319 3.47446 1.44544 2.87905L2.96707 1.9068C4.04377 1.21843 5.46953 1.55508 6.14308 2.65546L7.36481 4.65272C8.03836 5.75309 7.70896 7.21021 6.63226 7.89858L6.03 8.28044C5.79647 8.42867 5.65881 8.69246 5.66864 8.96629C5.7006 9.84057 5.90709 11.157 6.71338 12.4759C7.51968 13.7949 8.58654 14.5611 9.34121 14.9731C9.5772 15.1013 9.86973 15.0887 10.1033 14.9405L10.7031 14.5561C11.2242 14.2245 11.8437 14.1165 12.4435 14.2597C13.0433 14.4003 13.5546 14.7722 13.8791 15.3048L15.1008 17.302V17.3045ZM9.23059 7.71267C11.3078 8.13724 12.6573 10.2099 12.2444 12.3327C12.1608 12.7598 12.4312 13.1718 12.8466 13.2573C12.8982 13.2673 12.9474 13.2723 12.999 13.2723C13.3579 13.2723 13.68 13.0136 13.7512 12.6418C14.3314 9.66973 12.4386 6.77056 9.53295 6.17516C9.11505 6.08974 8.71191 6.36609 8.62833 6.79066C8.54475 7.21775 8.81515 7.62976 9.23059 7.71518V7.71267ZM10.1352 3.0951C9.71486 3.00969 9.31417 3.28604 9.23059 3.71061C9.14701 4.1377 9.41741 4.54971 9.83285 4.63513C11.6446 5.00695 13.2055 6.07466 14.2306 7.64484C15.2557 9.21501 15.6195 11.0992 15.2581 12.9508C15.1745 13.3778 15.4449 13.7899 15.8604 13.8753C15.912 13.8853 15.9612 13.8904 16.0128 13.8904C16.3717 13.8904 16.6913 13.6316 16.765 13.2598C17.2075 10.9987 16.765 8.69497 15.5113 6.77559C14.2576 4.85621 12.3525 3.54983 10.1377 3.09762L10.1352 3.0951ZM18.0629 5.02956C16.3569 2.41428 13.7537 0.630562 10.7375 0.0150546C10.3196 -0.0703628 9.91643 0.205988 9.83285 0.630562C9.74927 1.05514 10.0197 1.46966 10.4351 1.55508C13.0506 2.09019 15.3073 3.63273 16.7871 5.90383C18.267 8.17241 18.793 10.8932 18.2719 13.5663C18.1883 13.9934 18.4587 14.4054 18.8741 14.4908C18.9258 14.5008 18.9749 14.5059 19.0266 14.5059C19.3855 14.5059 19.705 14.2471 19.7788 13.8753C20.3835 10.7902 19.7739 7.65237 18.0679 5.03458L18.0629 5.02956Z" fill="#1662A9"/>
</g>
<defs>
<clipPath id="clip0_1004_907">
<rect width="20" height="22" fill="white"/>
</clipPath>
</defs>
</svg>
