<svg width="15" height="15" viewBox="0 0 15 15" fill="none" xmlns="http://www.w3.org/2000/svg">
<g clip-path="url(#clip0_1004_890)">
<path fill-rule="evenodd" clip-rule="evenodd" d="M3.49716 0C3.22306 0 3.00567 0.236146 3.00567 0.510076V1.01071H1.50284C0.680529 1.01071 0 1.69081 0 2.51259V5.01574H15V2.51259C15 1.69081 14.3195 1.01071 13.4972 1.01071H12.9962V1.51134C12.9773 2.1631 12.0132 2.1631 11.9943 1.51134V0.510076C11.9943 0.2267 11.7675 0 11.4839 0C11.2098 0 10.983 0.2267 10.9924 0.510076V1.01071H8.98866V1.51134C9.00756 2.19144 7.97732 2.19144 7.98677 1.51134V0.510076C8.00567 0.2267 7.77883 0 7.49527 0C7.22117 0 6.99433 0.2267 7.00378 0.510076V1.01071H5V1.51134C5 2.18199 3.99811 2.18199 3.99811 1.51134V0.510076C4.00756 0.2267 3.77127 0 3.49716 0ZM0 6.00756V13.5076C0 14.3293 0.680529 15.0094 1.50284 15.0094H13.5066C14.3289 15.0094 15.0095 14.3293 15.0095 13.5076V6.00756H0ZM3.49716 8.00063C3.77127 8.00063 3.99811 8.22733 3.99811 8.50126C3.99811 8.77519 3.77127 9.00189 3.49716 9.00189C3.22306 9.00189 2.99622 8.77519 2.99622 8.50126C2.99622 8.22733 3.22306 8.00063 3.49716 8.00063ZM7.50473 8.00063C7.77883 8.00063 8.00567 8.22733 8.00567 8.50126C8.00567 8.77519 7.77883 9.00189 7.50473 9.00189C7.23062 9.00189 7.00378 8.77519 7.00378 8.50126C7.00378 8.22733 7.23062 8.00063 7.50473 8.00063ZM11.5028 8.00063C11.7769 8.00063 12.0038 8.22733 12.0038 8.50126C12.0038 8.77519 11.7769 9.00189 11.5028 9.00189C11.2287 9.00189 11.0019 8.77519 11.0019 8.50126C11.0019 8.22733 11.2287 8.00063 11.5028 8.00063ZM3.49716 12.0057C3.77127 12.0057 3.99811 12.2324 3.99811 12.5063C3.99811 12.7802 3.77127 13.0069 3.49716 13.0069C3.22306 13.0069 2.99622 12.7802 2.99622 12.5063C2.99622 12.2324 3.22306 12.0057 3.49716 12.0057ZM7.50473 12.0057C7.77883 12.0057 8.00567 12.2324 8.00567 12.5063C8.00567 12.7802 7.77883 13.0069 7.50473 13.0069C7.23062 13.0069 7.00378 12.7802 7.00378 12.5063C7.00378 12.2324 7.23062 12.0057 7.50473 12.0057ZM11.5028 12.0057C11.7769 12.0057 12.0038 12.2324 12.0038 12.5063C12.0038 12.7802 11.7769 13.0069 11.5028 13.0069C11.2287 13.0069 11.0019 12.7802 11.0019 12.5063C11.0019 12.2324 11.2287 12.0057 11.5028 12.0057Z" fill="#1662A9"/>
</g>
<defs>
<clipPath id="clip0_1004_890">
<rect width="15" height="15" fill="white"/>
</clipPath>
</defs>
</svg>
