<svg width="17" height="17" viewBox="0 0 17 17" fill="none" xmlns="http://www.w3.org/2000/svg">
<g clip-path="url(#clip0_1004_901)">
<path fill-rule="evenodd" clip-rule="evenodd" d="M8.50091 0C13.192 0 17.0018 3.808 17.0018 8.50091C17.0018 13.1938 13.1938 17.0018 8.50091 17.0018C3.808 17.0018 0 13.192 0 8.50091C0 3.80981 3.808 0 8.50091 0ZM7.93333 3.4V8.49909C7.93333 8.6496 7.99317 8.79285 8.09835 8.89984L11.1103 11.9118C11.3315 12.133 11.6906 12.133 11.9118 11.9118C12.133 11.6906 12.133 11.3315 11.9118 11.1103L9.06667 8.26517V3.4C9.06667 3.08629 8.8128 2.83424 8.50091 2.83424C8.18901 2.83424 7.93515 3.08811 7.93515 3.4H7.93333Z" fill="#1662A9"/>
</g>
<defs>
<clipPath id="clip0_1004_901">
<rect width="17" height="17" fill="white"/>
</clipPath>
</defs>
</svg>
