<svg width="14" height="19" viewBox="0 0 14 19" fill="none" xmlns="http://www.w3.org/2000/svg">
<g clip-path="url(#clip0_1004_878)">
<path d="M4.89666 11.5206C5.93476 13.0858 6.57485 15.5824 6.80258 16.5839C6.82514 16.6768 6.90721 16.745 7.00363 16.745C7.10006 16.745 7.18212 16.6789 7.20264 16.5839C7.42626 15.5886 8.05815 13.0982 9.1024 11.5206C9.53734 10.8639 10.1015 10.265 10.6452 9.68477C11.8064 8.44784 13.0086 7.16961 13.0127 5.29047C13.023 2.82487 10.7888 0.132116 7.16571 0.00821616C7.11237 -0.00623879 7.04466 -4.38142e-05 7.00363 0.00408617C6.95029 -4.38142e-05 6.88874 -0.00623879 6.8354 0.00821616C3.21026 0.136246 0.980186 2.82487 0.986341 5.29047C0.992496 7.16961 2.19267 8.44784 3.35182 9.68271C3.89754 10.263 4.46172 10.8639 4.89666 11.5206ZM6.99953 2.54816C8.71876 2.54816 10.1179 3.95648 10.1179 5.68695C10.1179 7.41741 8.71876 8.82574 6.99953 8.82574C5.2803 8.82574 3.88112 7.41741 3.88112 5.68695C3.88112 3.95648 5.2803 2.54816 6.99953 2.54816Z" fill="#1662A9"/>
<path d="M8.71923 13.123C8.66178 13.2531 8.60844 13.3853 8.5551 13.5195C11.4191 13.8024 13.5897 14.8556 13.5897 16.014C13.5897 17.41 10.5718 18.587 7 18.587C3.42819 18.587 0.410317 17.41 0.410317 16.014C0.410317 14.8556 2.57884 13.8024 5.4449 13.5195C5.39156 13.3853 5.33617 13.2531 5.28077 13.123C2.18083 13.4452 0 14.6181 0 16.014C0 17.6887 3.07532 19 7 19C10.9247 19 14 17.6887 14 16.014C14 14.6181 11.8171 13.4452 8.71923 13.123Z" fill="#1662A9"/>
</g>
<defs>
<clipPath id="clip0_1004_878">
<rect width="14" height="19" fill="white"/>
</clipPath>
</defs>
</svg>
