<svg width="15" height="49" viewBox="0 0 15 49" fill="none" xmlns="http://www.w3.org/2000/svg">
<g clip-path="url(#clip0_1023_322)">
<path d="M10.2385 12.9193L9.37128 12.518C9.21605 11.4008 9.63787 10.1175 9.05407 9.12476C10.2959 9.57442 11.6727 9.61593 12.9011 9.12476C13.0057 9.3911 12.6075 9.68857 12.6075 9.80618V13.6768L10.2385 12.9193C11.0012 13.0853 13.3398 14.2752 13.9303 14.8252C14.2408 15.1123 14.4433 15.3786 14.3623 15.8421C14.2813 16.3056 13.0293 17.5647 12.459 17.3191V20.5048C12.0136 20.3077 11.666 19.9514 11.2745 19.6712C11.1531 19.5847 10.9843 19.263 10.8325 19.519C12.3274 21.2035 16.3567 22.3519 12.6817 24.3996C12.0068 23.95 11.3893 23.4934 10.684 23.0852C11.2172 23.5695 11.7605 24.0572 12.2835 24.5553C12.3645 24.8251 12.351 27.4747 12.2633 27.7168C12.2262 27.8171 12.1114 28.0108 12.017 27.8655C11.5209 27.6753 11.0046 26.7137 10.387 26.8002C10.9472 27.4989 13.8392 29.263 13.9438 29.9963C14.0619 30.8264 13.1103 31.3522 12.5096 31.6981L12.2026 31.6324L8.15643 28.0247C7.68737 27.2706 9.00345 25.7901 9.7931 26.2709C9.86397 26.2121 9.64462 26.0772 9.64462 26.0461V22.4799C9.98208 22.6944 10.333 22.8881 10.6806 23.0852C9.87072 22.3485 8.67949 21.5944 8.01133 20.8922C6.98545 19.813 8.4534 19.2942 9.05407 18.4467L9.7931 18.6854C9.93484 18.2772 9.52989 18.4433 9.49614 18.2842C9.33416 17.5024 9.621 16.1984 9.49614 15.3475H10.5321C8.90559 14.8943 7.28242 14.4032 5.87184 15.6519C5.60525 15.8871 5.49727 16.2226 5.27792 16.4094C3.94496 17.5474 1.92696 19.2042 0.158683 18.17C-0.344129 17.3571 0.469144 17.0839 0.830224 16.5512C1.43765 15.6519 1.5895 15.0327 2.65925 14.4827C4.57601 13.4935 8.13956 12.4661 10.2385 12.9227V12.9193Z" fill="#E30613"/>
<path d="M10.4986 0.058798C13.9339 -0.532689 15.8304 3.47282 14.6527 6.44063C13.9036 8.32232 11.9024 9.53642 9.94518 8.90343C6.06104 7.64781 6.44912 0.757513 10.4986 0.058798ZM10.3501 0.816316C7.12066 1.38013 7.24552 6.71043 10.6235 7.13934C15.3681 7.74467 15.5841 -0.0933975 10.3501 0.816316Z" fill="#E30613"/>
<path d="M10.3865 43.2684C10.2819 43.1058 10.2549 42.9364 10.2347 42.7461C10.0356 40.9371 10.238 38.5331 10.1672 36.5995C10.1604 36.4023 10.346 36.2778 10.3426 36.2155C10.3089 35.7451 8.37188 34.7731 8.31789 33.9292C8.28077 33.3342 9.23915 32.549 9.69134 32.6701C9.94781 32.7393 10.0423 33.1855 10.3865 33.1059C10.4709 33.0264 9.94106 32.639 9.94106 32.5767V30.0724C10.3764 30.3941 11.8983 31.4802 12.0839 31.8953C12.364 32.5248 11.8342 33.5867 12.0131 34.32L11.4225 34.0917C11.8949 34.6694 13.2481 35.6068 13.3123 36.3954C13.3561 36.9419 12.229 37.7998 11.7195 37.5092C12.1042 39.3805 11.5204 41.3556 11.7195 43.2753H10.3865C10.3865 43.2753 10.373 43.4068 10.6025 43.4344C11.6418 43.5624 12.8365 43.0989 13.6362 42.4348C13.8724 42.2376 13.8522 41.9471 14.085 41.909C13.8657 43.5866 11.8882 44.3995 10.3865 44.185L11.7195 44.3338V48.6575C11.7195 49.1833 10.562 49.0276 10.238 48.7336V44.2577C9.2729 43.891 7.71384 43.2788 7.45737 42.1027C7.02205 40.1173 8.4495 39.2145 9.94106 38.4155C9.89719 38.8513 10.0322 39.4151 9.91069 39.8267C9.76558 40.3214 8.89494 40.5012 8.91857 41.5113C8.94219 42.5213 9.51924 43.009 10.3865 43.2719V43.2684Z" fill="#E30613"/>
</g>
<defs>
<clipPath id="clip0_1023_322">
<rect width="15" height="49" fill="white"/>
</clipPath>
</defs>
</svg>
