<svg width="32" height="46" viewBox="0 0 32 46" fill="none" xmlns="http://www.w3.org/2000/svg">
<g clip-path="url(#clip0_1023_314)">
<path d="M0.209961 45.1728L1.9453 43.778L1.13205 43.5086L0.859957 43.0297C1.74879 42.5868 3.23925 42.2755 4.00715 41.7397C5.37063 40.7849 7.74387 36.2234 8.49061 34.5892C9.10433 33.2453 10.6311 29.7823 10.8004 28.4863C10.9425 27.4028 9.20409 26.6635 8.44828 25.9721C4.55133 22.4283 6.60109 20.7312 9.7513 17.8129C10.2894 17.3161 12.055 16.2386 12.1457 15.6609L10.4073 3.12286L12.4148 8.53436C13.0013 10.3811 13.3036 12.2667 13.6664 14.1644C13.7178 14.4337 13.5092 14.5505 13.9808 14.4876L31.6668 1.51257C26.5938 7.39699 20.5231 12.171 14.132 16.5678C14.2257 20.3182 13.7843 24.0116 12.6687 27.5884L24.0663 34.1313C25.8712 35.5949 22.4973 36.7951 21.3696 37.2381C17.4787 38.7586 13.1222 39.4859 9.15874 40.8238C7.70759 41.3147 5.86039 41.608 5.85132 43.4548L8.67503 43.8858C8.802 44.655 8.56921 44.0983 8.34852 44.0983H5.20133C5.12575 44.0983 4.89598 45.1698 4.22482 45.1698H0.209961V45.1728ZM11.272 26.7204C11.9341 23.847 13.0799 20.8988 12.3573 17.9267C10.7369 19.1449 6.95783 22.1829 8.0734 24.4217C8.56619 25.4094 10.3711 26.0739 11.275 26.7234L11.272 26.7204ZM7.15434 40.8807C11.3264 39.5458 16.0064 38.8424 20.0636 37.2381C20.7347 36.9717 23.2198 36.0229 23.1533 35.1938C22.8268 34.7808 22.4187 34.3468 21.9773 34.0535C20.0877 32.7964 17.134 31.5872 15.0329 30.4079C14.5613 30.1445 12.4631 28.5971 12.1427 28.8694C11.1904 33.1436 8.90177 36.9208 7.15131 40.8837L7.15434 40.8807Z" fill="#E30613"/>
<path d="M19.4136 0.234492C23.4798 0.330271 19.2261 8.16618 16.3661 5.06235C14.5824 3.1318 17.1612 0.180616 19.4136 0.234492Z" fill="#E30613"/>
</g>
<defs>
<clipPath id="clip0_1023_314">
<rect width="31.4568" height="44.9383" fill="white" transform="translate(0.209961 0.234497)"/>
</clipPath>
</defs>
</svg>
