<svg width="62" height="49" viewBox="0 0 62 49" fill="none" xmlns="http://www.w3.org/2000/svg">
<g clip-path="url(#clip0_1026_1611)">
<path d="M17.05 0H48.95C56.142 0 62 5.82235 62 12.9706V25.9412C62 33.0894 56.142 38.9118 48.95 38.9118H44.6V47.5588C44.6 48.1425 44.2447 48.6685 43.7082 48.8919C43.527 48.964 43.3385 49 43.15 49C42.773 49 42.4032 48.8559 42.1277 48.5749L32.4055 38.9118H17.0572C9.858 38.9118 4.00725 33.0894 4.00725 25.9412V12.9706C4.00725 5.82235 9.858 0 17.0572 0H17.05ZM6.9 25.9412C6.9 31.5041 11.453 36.0294 17.05 36.0294H33C33.3842 36.0294 33.754 36.1807 34.0222 36.4546L41.7 44.0856V37.4778C41.7 36.6851 42.3525 36.0366 43.15 36.0366H48.95C54.547 36.0366 59.1 31.5113 59.1 25.9484V12.9778C59.1 7.41485 54.547 2.88956 48.95 2.88956H17.05C11.453 2.88956 6.9 7.41485 6.9 12.9778V25.9484V25.9412Z" fill="#1662A9"/>
</g>
<circle cx="7" cy="34" r="7" fill="#FF3320"/>
<defs>
<clipPath id="clip0_1026_1611">
<rect width="58" height="49" fill="white" transform="matrix(-1 0 0 1 62 0)"/>
</clipPath>
</defs>
</svg>
