<svg width="17" height="17" viewBox="0 0 17 17" fill="none" xmlns="http://www.w3.org/2000/svg">
<path d="M11.9792 17H5.0226C2.25024 16.9964 0.00367687 14.8097 0 12.1111V5.33978C0.00367687 2.64304 2.25024 0.456307 5.0226 0.452728H8.1222V1.74473H5.0226C2.98378 1.74652 1.33103 3.35525 1.32919 5.33978V12.1111C1.33103 14.0957 2.98378 15.7044 5.0226 15.7062H11.9792C14.0181 15.7044 15.6708 14.0957 15.6727 12.1111V8.72547H17V12.1111C16.9963 14.8097 14.7498 16.9964 11.9774 17H11.9792Z" fill="#1662A9"/>
<path d="M14.4229 0L17.0004 2.50884L8.32848 10.9498L5.04688 11.6352L5.751 8.44095L14.4229 0Z" fill="#1662A9"/>
</svg>
